# xmcd
#
# Track frame offsets:
#	150
#	17063
#	33883
#	44486
#	64493
#	78845
#	90225
#	108342
#	125504
#	139153
#
# Disc length: 2097 seconds
#
# Revision: 0
# Processed by: cddbd v1.5.2PL0 Copyright (c) Steve Scherf et al.
# Submitted via: EasyCDDAExtractor 10.2.0.1
#
DISCID=7c082f0a
DTITLE=Eddie Dietz - Songs of Inspiration
DYEAR=2001
DGENRE=Gospel
TTITLE0=Thank You Lord
TTITLE1=Daddy Always Had A Friend
TTITLE2=A Rose Among The Thornes
TTITLE3=God Walks The Dark Hills
TTITLE4=Tears Will never Stain
TTITLE5=I'm One Of His Own
TTITLE6=The Night Before Easter
TTITLE7=He's Been There Too
TTITLE8=Jesus Will Outshine Them All
TTITLE9=The Unseen Hand
EXTD=
EXTT0=
EXTT1=
EXTT2=
EXTT3=
EXTT4=
EXTT5=
EXTT6=
EXTT7=
EXTT8=
EXTT9=
PLAYORDER=
